<svg xmlns="http://www.w3.org/2000/svg" xmlns:xlink="http://www.w3.org/1999/xlink" width="664.74" height="158.735" viewBox="0 0 664.74 158.735">
  <defs>
    <radialGradient id="radial-gradient" cx="-0.207" cy="1.226" r="1.825" gradientTransform="translate(-0.054) scale(1.109 1)" gradientUnits="objectBoundingBox">
      <stop offset="0" stop-color="#d89e2b"/>
      <stop offset="0.996" stop-color="#ffd37f"/>
    </radialGradient>
    <radialGradient id="radial-gradient-2" cx="-0.472" cy="0.927" r="1.825" xlink:href="#radial-gradient"/>
  </defs>
  <g id="StockPe_Logo_-_2" data-name="StockPe Logo - 2" transform="translate(-88.58 -218.272)">
    <g id="Group_3" data-name="Group 3">
      <g id="Group_1" data-name="Group 1">
        <path id="Path_1" data-name="Path 1" d="M288.73,314.73c3.57,6.44,10.81,10.93,20.47,10.93,8.86,0,15.53-3.8,15.53-9.32,0-5.18-4.14-8.17-14.84-10.93l-10.24-2.65c-14.84-3.79-22.77-11.73-22.77-23.58,0-15.07,12.54-25.99,31.86-25.99,14.84,0,27.37,6.56,32.89,17.6l-14.72,7.94c-3.1-5.64-10.24-9.66-18.4-9.66-7.94,0-13.57,3.68-13.57,9.2,0,5.06,4.02,7.71,14.72,10.47l10.23,2.65c14.84,4.02,22.89,12.08,22.89,24.15,0,15.07-13.92,25.99-33.81,25.99-16.56,0-29.21-7.25-35.08-18.86Z" fill="#fff"/>
        <path id="Path_2" data-name="Path 2" d="M398.71,337.73c-3.57,2.3-9.55,3.79-15.53,3.79-15.53,0-24.04-8.86-24.04-25.88V293H346.37V277.7h12.77V261.37h17.48V277.7H396.4V293H376.62v22.54c0,7.01,3.1,10.47,9.32,10.47a18.6,18.6,0,0,0,9.08-2.07Z" fill="#fff"/>
        <path id="Path_3" data-name="Path 3" d="M436.28,276.09c18.98,0,33.24,14.15,33.24,32.66,0,18.75-14.26,32.78-33.24,32.78-19.21,0-33.24-14.03-33.24-32.78C403.04,290.12,417.07,276.09,436.28,276.09Zm11.84,20.36c-2.99-3.34-6.9-4.95-11.85-4.95a15.439,15.439,0,0,0-11.96,4.95,17.047,17.047,0,0,0-4.6,12.31,17.526,17.526,0,0,0,4.6,12.42,15.439,15.439,0,0,0,11.96,4.95c4.95,0,8.86-1.61,11.85-4.95a17.466,17.466,0,0,0,4.6-12.42A17.005,17.005,0,0,0,448.12,296.45Z" fill="#fff"/>
        <path id="Path_4" data-name="Path 4" d="M510.59,276.09c11.96,0,22.2,5.41,28.06,14.49l-14.38,8.05a15.8,15.8,0,0,0-13.69-7.13,15.439,15.439,0,0,0-11.96,4.95,17.047,17.047,0,0,0-4.6,12.31,17.526,17.526,0,0,0,4.6,12.42,15.439,15.439,0,0,0,11.96,4.95A15.8,15.8,0,0,0,524.27,319l14.38,7.94c-5.87,9.09-16.1,14.61-28.06,14.61-19.21,0-33.24-14.03-33.24-32.78C477.35,290.12,491.38,276.09,510.59,276.09Z" fill="#fff"/>
        <path id="Path_5" data-name="Path 5" d="M588.32,339.92l-23.81-27.14v27.14H547.03v-86.6h17.48V304.5l22.66-26.8h20.24l-26.57,30.94,27.95,31.28H588.32Z" fill="#fff"/>
        <path id="Path_6" data-name="Path 6" d="M646.68,314.27H634.03v25.65H616.09V254.81h30.59c22.77,0,36.23,12.31,36.23,29.79C682.91,301.85,669.45,314.27,646.68,314.27Zm0-43.36H634.03v27.26h12.65c12.19,0,18.29-4.49,18.29-13.57S658.87,270.91,646.68,270.91Z" fill="#fff"/>
        <path id="Path_7" data-name="Path 7" d="M705.58,314.62c2.19,7.93,8.74,12.08,17.48,12.08,6.33,0,12.19-2.76,15.07-7.25l13.46,8.4c-5.41,8.28-16.56,13.68-28.52,13.68-20.36,0-34.39-14.03-34.39-32.78,0-18.63,13.57-32.66,32.32-32.66,18.52,0,32.32,12.65,32.32,31.28a63.831,63.831,0,0,1-.34,7.25h-47.4Zm30.82-11.73c-.8-7.36-6.9-12.42-15.3-12.42-7.36,0-13.57,4.49-15.53,12.42Z" fill="#fff"/>
      </g>
      <g id="Group_2" data-name="Group 2">
        <path id="Path_8" data-name="Path 8" d="M92.07,339.87l1.05.61L155.8,304.3a1.39,1.39,0,0,0,0-2.41l-6.98-4.03-22.5-12.98a1.39,1.39,0,0,1,0-2.41l7.72-4.47,64.76-37.39-37.07-21.4a6.946,6.946,0,0,0-6.97,0l-62.7,36.2a6.97,6.97,0,0,0-3.48,6.04v72.4A6.947,6.947,0,0,0,92.07,339.87Z" fill="url(#radial-gradient)"/>
        <path id="Path_9" data-name="Path 9" d="M224.44,255.4l-1.05-.6-62.67,36.17a1.39,1.39,0,0,0,0,2.41l6.98,4.03,22.5,13a1.39,1.39,0,0,1,0,2.41l-7.72,4.45-64.78,37.4,37.06,21.4a6.946,6.946,0,0,0,6.97,0l62.7-36.2a6.98,6.98,0,0,0,3.49-6.04v-72.4A6.987,6.987,0,0,0,224.44,255.4Z" fill="url(#radial-gradient-2)"/>
      </g>
    </g>
  </g>
</svg>
